<?xml version="1.0" standalone="no"?>
<!DOCTYPE svg PUBLIC "-//W3C//DTD SVG 20010904//EN"
 "http://www.w3.org/TR/2001/REC-SVG-20010904/DTD/svg10.dtd">
<svg version="1.0" xmlns="http://www.w3.org/2000/svg"
 width="992.000000pt" height="992.000000pt" viewBox="0 0 992.000000 992.000000"
 preserveAspectRatio="xMidYMid meet">
<metadata>
Created by potrace 1.14, written by Peter Selinger 2001-2017
</metadata>
<g transform="translate(0.000000,992.000000) scale(0.100000,-0.100000)"
fill="#000000" stroke="none">
<path d="M3244 8482 c-15 -9 -17 -1581 -2 -1599 7 -9 16 -10 29 -2 13 7 19 6
19 -1 0 -7 6 -8 17 -1 11 6 24 6 35 0 12 -6 25 -6 38 1 14 8 20 8 20 0 0 -8 6
-8 20 0 14 8 20 8 20 0 0 -8 6 -8 20 0 14 8 20 8 20 0 0 -6 5 -8 11 -5 13 9
79 12 79 5 0 -7 77 -3 90 5 6 3 10 3 10 -2 0 -4 11 -8 25 -8 14 0 25 3 25 7 0
4 11 3 25 -2 15 -6 26 -6 30 0 4 6 13 7 23 1 9 -5 26 -5 37 -1 11 4 28 4 37
-1 10 -6 19 -5 23 1 3 6 15 6 30 0 15 -6 27 -6 30 0 4 6 13 7 23 1 11 -6 24
-6 34 0 10 6 19 6 23 0 3 -7 15 -7 30 -1 16 6 27 6 31 -1 4 -7 10 -6 19 1 9 8
15 8 20 0 4 -6 12 -7 23 -1 11 6 24 6 34 0 10 -6 19 -6 23 0 3 7 15 7 30 1 15
-6 27 -6 30 0 4 6 13 7 23 1 11 -6 24 -6 34 0 10 6 19 6 23 0 3 -7 15 -7 30
-1 16 6 27 6 31 -1 4 -7 10 -6 19 1 8 7 16 7 19 2 3 -6 20 -7 41 -2 19 4 35 5
35 1 0 -8 76 -5 90 4 6 3 10 3 10 -2 0 -4 11 -8 25 -8 14 0 25 3 25 7 0 4 11
3 25 -2 15 -6 26 -6 30 0 4 6 14 7 23 2 19 -9 54 -8 71 2 6 4 11 2 11 -4 0 -8
6 -8 20 0 14 8 20 8 20 0 0 -8 6 -8 20 0 14 8 20 8 20 0 0 -7 7 -7 23 1 12 7
22 12 22 12 0 0 10 -5 22 -11 14 -8 24 -9 28 -2 4 7 12 7 23 1 10 -6 23 -6 34
0 10 5 18 6 18 2 0 -4 16 -8 35 -8 19 0 35 3 35 7 0 4 11 3 25 -2 15 -6 26 -6
30 1 4 5 11 6 17 3 17 -10 51 -11 71 -2 11 6 17 5 17 -2 0 -8 6 -8 20 0 14 8
20 8 20 0 0 -8 6 -8 20 0 14 8 20 8 20 0 0 -6 5 -8 11 -5 13 9 79 12 79 5 0
-7 77 -3 90 5 6 3 10 3 10 -2 0 -4 11 -8 25 -8 14 0 25 3 25 7 0 4 11 3 25 -2
15 -6 26 -6 30 0 4 6 13 7 23 1 9 -5 26 -5 37 -1 11 4 28 4 37 -1 10 -6 19 -5
23 1 3 6 15 6 30 0 15 -6 27 -6 30 0 4 6 13 7 23 1 11 -6 24 -6 34 0 10 6 19
6 23 0 3 -7 15 -7 30 -1 16 6 27 6 31 -1 4 -7 10 -6 19 1 9 8 15 8 20 0 4 -6
12 -7 23 -1 11 6 24 6 34 0 10 -6 19 -6 23 0 3 7 15 7 30 1 15 -6 27 -6 30 0
4 6 13 7 23 1 11 -6 24 -6 34 0 10 6 19 6 23 0 3 -7 15 -7 30 -1 16 6 27 6 31
-1 4 -7 10 -6 19 1 8 7 16 7 19 2 3 -6 20 -7 41 -2 19 4 35 5 35 1 0 -8 76 -5
90 4 6 3 10 3 10 -2 0 -4 11 -8 25 -8 14 0 25 3 25 7 0 4 11 3 25 -2 15 -6 26
-6 30 0 4 6 14 7 23 2 19 -9 54 -8 71 2 6 4 11 2 11 -4 0 -8 6 -8 20 0 14 8
20 8 20 0 0 -8 6 -8 20 0 14 8 20 8 20 0 0 -7 6 -8 18 -1 21 11 33 11 54 0 10
-6 19 -5 23 1 4 6 13 7 23 1 11 -6 24 -6 35 0 9 6 17 6 17 1 0 -5 14 -7 30 -4
28 4 30 2 30 -29 1 -40 1 -3791 0 -3800 0 -8 -80 -17 -80 -9 0 7 -77 3 -90 -5
-6 -3 -10 -3 -10 2 0 4 -11 8 -25 8 -14 0 -25 -3 -25 -7 0 -4 -11 -3 -25 2
-15 6 -26 6 -30 -1 -4 -5 -13 -6 -22 -1 -8 5 -33 6 -54 2 -21 -4 -39 -4 -39
-1 0 8 -76 4 -90 -4 -6 -3 -10 -3 -10 2 0 4 -11 8 -25 8 -14 0 -25 -3 -25 -7
0 -4 -11 -3 -25 2 -15 6 -26 6 -30 0 -4 -6 -14 -7 -23 -2 -19 9 -54 8 -71 -2
-6 -4 -11 -2 -11 4 0 8 -6 8 -20 0 -14 -8 -20 -8 -20 0 0 8 -6 8 -20 0 -14 -8
-20 -8 -20 0 0 7 -7 7 -22 -1 -13 -7 -25 -11 -28 -10 -3 2 -13 7 -22 12 -10 6
-19 5 -23 -1 -4 -6 -13 -7 -23 -1 -11 6 -24 6 -35 0 -9 -6 -17 -6 -17 -2 0 4
-16 8 -35 8 -19 0 -35 -3 -35 -7 0 -4 -11 -3 -25 2 -15 6 -26 6 -30 0 -4 -6
-14 -7 -23 -2 -19 9 -54 8 -71 -2 -6 -4 -11 -2 -11 4 0 8 -6 8 -20 0 -14 -8
-20 -8 -20 0 0 8 -6 8 -20 0 -14 -8 -20 -8 -20 0 0 8 -6 8 -20 0 -14 -8 -20
-8 -20 0 0 8 -6 8 -20 0 -14 -8 -20 -8 -20 0 0 8 -6 8 -20 0 -14 -8 -20 -8
-20 0 0 8 -6 8 -20 0 -14 -8 -20 -8 -20 0 0 7 -7 7 -22 -1 -13 -7 -23 -12 -23
-12 0 0 -10 5 -22 11 -14 8 -24 9 -28 2 -4 -6 -13 -7 -23 -1 -11 6 -24 6 -35
0 -9 -6 -17 -6 -17 -2 0 4 -16 8 -35 8 -19 0 -35 -3 -35 -7 0 -4 -11 -3 -25 2
-15 6 -26 6 -30 0 -4 -6 -14 -7 -23 -2 -19 9 -54 8 -71 -2 -6 -4 -11 -2 -11 4
0 8 -6 8 -20 0 -14 -8 -20 -8 -20 0 0 8 -6 8 -20 0 -14 -8 -20 -8 -20 0 0 8
-6 8 -20 0 -14 -8 -20 -8 -20 0 0 8 -6 8 -20 0 -14 -8 -20 -8 -20 0 0 8 -6 8
-20 0 -14 -8 -20 -8 -20 0 0 8 -6 8 -20 0 -14 -8 -20 -8 -20 0 0 7 -7 7 -22
-1 -13 -7 -23 -12 -23 -12 0 0 -10 5 -22 11 -14 8 -24 9 -28 2 -4 -6 -13 -7
-23 -1 -11 6 -24 6 -35 0 -9 -6 -17 -6 -17 -2 0 4 -16 8 -35 8 -19 0 -35 -3
-35 -7 0 -4 -11 -3 -25 2 -15 6 -26 6 -30 0 -4 -6 -14 -7 -23 -2 -19 9 -54 8
-71 -2 -6 -4 -11 -2 -11 4 0 8 -6 8 -20 0 -14 -8 -20 -8 -20 0 0 8 -6 8 -20 0
-14 -8 -20 -8 -20 0 0 8 -6 8 -20 0 -14 -8 -20 -8 -20 0 0 8 -6 8 -20 0 -14
-8 -20 -8 -20 0 0 8 -6 8 -20 0 -14 -8 -20 -8 -20 0 0 8 -6 8 -20 0 -14 -8
-20 -8 -20 0 0 7 -7 7 -22 -1 -13 -7 -23 -12 -23 -12 0 0 -10 5 -22 11 -14 8
-24 9 -28 2 -4 -6 -13 -7 -23 -1 -11 6 -24 6 -35 0 -9 -6 -17 -6 -17 -2 0 4
-16 8 -35 8 -19 0 -35 -3 -35 -7 0 -4 -11 -3 -25 2 -15 6 -26 6 -30 0 -4 -6
-14 -7 -23 -2 -19 9 -54 8 -71 -2 -6 -4 -11 -2 -11 4 0 8 -6 8 -20 0 -14 -8
-20 -8 -20 0 0 8 -6 8 -20 0 -14 -8 -20 -8 -20 0 0 6 -5 8 -11 5 -13 -9 -79
-12 -79 -5 0 7 -77 3 -90 -5 -6 -3 -10 -3 -10 2 0 4 -11 8 -25 8 -14 0 -25 -3
-25 -7 0 -4 -11 -3 -25 2 -15 6 -26 6 -30 -1 -4 -5 -13 -6 -22 -1 -8 5 -33 6
-54 2 -21 -4 -39 -4 -39 -1 0 8 -76 4 -90 -4 -6 -3 -10 -2 -10 3 0 10 -30 10
-46 0 -5 -4 -16 -3 -24 2 -8 5 -21 5 -31 0 -11 -7 -20 -5 -27 3 -6 8 -10 673
-10 1912 -1 2116 0 1930 -8 1923 -3 -4 -19 -2 -35 2 -17 5 -29 5 -29 0 0 -6
-10 -6 -25 0 -15 6 -26 6 -30 -1 -4 -5 -11 -6 -17 -3 -17 10 -51 11 -70 2 -12
-6 -18 -5 -18 2 0 8 -6 8 -20 0 -14 -8 -20 -8 -20 0 0 8 -6 8 -20 0 -14 -8
-20 -8 -20 0 0 7 -7 7 -22 -1 -13 -7 -25 -11 -28 -10 -3 2 -13 7 -22 12 -10 6
-19 5 -23 -1 -3 -6 -15 -6 -30 0 -15 6 -27 6 -30 0 -4 -6 -13 -7 -23 -1 -11 6
-24 6 -34 0 -10 -6 -19 -6 -23 0 -3 7 -15 7 -30 1 -16 -6 -27 -6 -31 1 -4 7
-10 6 -19 -1 -9 -7 -15 -7 -19 -1 -6 10 -37 8 -56 -4 -6 -3 -10 -1 -10 5 0 8
-6 8 -20 0 -14 -8 -20 -8 -20 0 0 8 -6 8 -20 0 -14 -8 -20 -8 -20 0 0 7 -6 8
-17 1 -22 -11 -34 -11 -55 0 -10 6 -19 5 -23 -1 -4 -6 -13 -7 -23 -1 -11 6
-24 6 -35 0 -9 -6 -17 -6 -17 -2 0 4 -16 8 -35 8 -19 0 -35 -3 -35 -7 0 -4
-11 -3 -25 2 -15 6 -26 6 -30 0 -4 -6 -14 -7 -23 -2 -19 9 -54 8 -71 -2 -6 -4
-11 -2 -11 4 0 8 -6 8 -20 0 -14 -8 -20 -8 -20 0 0 8 -6 8 -20 0 -14 -8 -20
-8 -20 0 0 8 -6 8 -20 0 -14 -8 -20 -8 -20 0 0 8 -6 8 -20 0 -14 -8 -20 -8
-20 0 0 7 -6 8 -19 0 -14 -7 -22 -7 -26 0 -5 7 -11 8 -19 1 -7 -6 -17 -6 -26
-1 -9 6 -17 5 -22 -3 -5 -9 -10 -9 -19 0 -8 8 -19 9 -35 3 -14 -6 -24 -6 -24
-1 0 5 -12 6 -27 2 l-28 -7 -2 -2714 c-2 -2110 0 -2716 9 -2721 7 -5 18 -3 24
2 7 6 14 6 17 2 6 -10 128 -10 144 0 6 4 14 4 16 0 3 -5 54 -7 114 -6 59 2
115 3 123 3 8 0 80 0 160 0 80 0 152 0 160 0 8 0 80 0 160 0 80 0 152 0 160 0
8 0 80 0 160 0 80 0 152 0 160 0 8 0 61 -1 117 -3 57 -1 103 2 103 6 0 5 5 5
10 2 14 -9 114 -10 128 -1 6 3 13 2 17 -4 4 -6 12 -7 24 -1 9 5 22 6 28 3 14
-9 77 -7 92 2 5 4 12 2 16 -4 4 -7 12 -7 25 0 13 7 21 7 25 0 4 -6 13 -7 23
-1 17 8 49 7 59 -3 3 -3 14 -1 24 4 12 7 20 7 24 0 4 -7 12 -7 25 0 11 6 21 6
25 1 3 -6 17 -6 35 -1 18 5 32 5 35 -1 4 -5 14 -5 25 1 13 7 21 7 25 0 4 -7
12 -7 24 0 10 5 21 7 24 4 10 -10 42 -11 59 -3 10 6 19 5 23 -1 4 -7 12 -7 25
0 13 7 21 7 25 0 4 -6 13 -7 23 -1 9 5 19 10 22 12 3 1 14 -3 26 -9 11 -6 26
-7 34 -2 7 4 24 4 37 -1 14 -5 23 -5 23 1 0 6 9 6 23 1 13 -5 30 -5 39 0 11 6
19 5 23 -1 4 -6 13 -7 24 -1 10 6 23 6 31 1 8 -5 19 -5 25 0 6 5 17 5 25 0 7
-4 24 -4 36 0 14 6 26 5 29 0 3 -6 15 -6 30 0 15 6 27 6 30 -1 4 -6 13 -6 23
0 9 5 26 5 39 0 14 -5 23 -5 23 1 0 6 9 6 25 0 15 -6 26 -6 30 1 4 5 13 6 22
1 8 -5 33 -6 54 -2 22 4 42 4 45 -1 2 -4 16 -4 29 1 15 6 27 6 30 -1 4 -5 11
-7 16 -3 13 8 79 11 79 4 0 -7 54 -5 66 2 5 3 18 2 29 -2 11 -4 30 -4 42 1 13
5 25 4 28 -1 3 -6 15 -6 30 0 15 6 27 6 30 -1 4 -6 13 -6 23 0 9 5 26 5 39 0
14 -5 23 -5 23 1 0 6 9 6 25 0 15 -6 26 -6 30 1 4 5 13 6 22 1 8 -5 33 -6 54
-2 22 4 42 4 45 -1 2 -4 16 -4 29 1 15 6 27 6 30 -1 4 -5 11 -7 16 -3 13 8 79
11 79 4 0 -7 59 -5 66 3 3 3 17 2 30 -3 16 -6 24 -6 24 1 0 6 6 6 18 0 10 -5
24 -6 32 -1 7 4 24 4 37 -1 14 -5 23 -5 23 1 0 6 9 6 23 1 13 -5 30 -5 37 -1
8 5 19 5 25 0 6 -5 17 -5 25 0 8 5 21 5 31 -1 11 -6 20 -5 24 1 4 6 13 7 23 1
21 -11 33 -11 54 0 10 6 19 5 23 -1 4 -7 12 -7 25 0 13 7 21 7 25 0 4 -6 13
-7 23 -1 17 8 49 7 59 -3 3 -3 14 -1 24 4 12 7 20 7 24 0 4 -7 12 -7 25 0 11
6 21 6 25 1 3 -6 17 -6 35 -1 18 5 32 5 35 -1 4 -5 14 -5 25 1 13 7 21 7 25 0
4 -7 12 -7 24 0 10 5 21 7 24 4 10 -10 42 -11 59 -3 10 6 19 5 23 -1 4 -7 12
-7 25 0 13 7 21 7 25 0 4 -6 13 -7 23 -1 9 5 19 10 22 12 3 1 14 -3 26 -9 11
-6 26 -7 34 -2 7 4 24 4 37 -1 14 -5 23 -5 23 1 0 6 9 6 23 1 13 -5 30 -5 39
0 11 6 19 5 23 -1 4 -6 13 -7 24 -1 10 6 23 6 31 1 8 -5 19 -5 25 0 6 5 17 5
24 1 19 -12 51 -1 52 18 0 9 1 368 1 798 0 649 2 783 14 787 7 3 16 1 19 -4 4
-7 13 -7 24 0 12 6 22 5 28 -1 7 -7 13 -7 17 -1 4 7 17 7 36 2 18 -5 30 -5 30
0 0 6 10 6 25 0 15 -6 26 -6 30 0 4 6 14 7 23 2 19 -9 54 -8 71 2 6 4 11 2 11
-4 0 -8 6 -8 20 0 14 8 20 8 20 0 0 -8 6 -8 20 0 14 8 20 8 20 0 0 -7 6 -8 18
-1 9 5 19 10 22 12 3 1 15 -3 27 -9 14 -8 24 -9 28 -2 4 6 13 7 23 1 11 -6 24
-6 35 0 9 6 17 6 17 2 0 -4 16 -8 35 -8 19 0 35 3 35 7 0 4 11 3 25 -2 15 -6
26 -6 30 0 4 6 14 7 23 2 19 -9 54 -8 71 2 6 4 11 2 11 -4 0 -8 6 -8 20 0 14
8 20 8 20 0 0 -8 6 -8 20 0 14 8 20 8 20 0 0 -6 5 -8 11 -5 13 9 79 12 79 5 0
-7 77 -3 90 5 6 3 10 3 10 -2 0 -4 11 -8 25 -8 14 0 25 3 25 7 0 4 11 3 25 -2
15 -6 26 -6 30 0 4 6 13 7 23 1 9 -5 26 -5 37 -1 11 4 28 4 37 -1 10 -6 19 -5
23 1 3 6 15 6 30 0 15 -6 27 -6 30 0 4 6 13 7 23 1 11 -6 24 -6 34 0 10 6 19
6 23 0 3 -7 15 -7 30 -1 16 6 27 6 31 -1 4 -7 10 -6 19 1 8 6 16 7 19 2 3 -5
17 -7 31 -4 20 3 25 10 25 36 4 520 2 5395 -2 5401 -7 12 -98 12 -116 1 -7 -4
-12 -4 -12 1 0 4 -29 8 -65 8 -36 0 -65 -4 -65 -8 0 -5 -6 -5 -12 0 -18 10
-100 10 -115 0 -7 -5 -13 -6 -13 -1 0 11 -181 11 -198 0 -7 -4 -12 -4 -12 1 0
4 -46 7 -102 6 -123 -3 -98 -3 -236 0 -61 1 -112 -2 -112 -6 0 -5 -5 -5 -12
-1 -16 10 -118 11 -118 1 0 -4 -5 -5 -12 -1 -16 10 -178 11 -178 1 0 -4 -8 -4
-17 1 -15 6 -75 7 -138 1 -5 0 -24 1 -42 4 -17 2 -37 1 -44 -4 -7 -4 -20 -4
-29 1 -9 5 -22 5 -30 0 -7 -4 -24 -4 -37 1 -14 5 -23 5 -23 -1 0 -6 -9 -6 -23
-1 -13 5 -30 5 -37 1 -8 -5 -19 -5 -25 0 -6 5 -17 5 -25 0 -8 -5 -21 -5 -31 1
-11 6 -20 5 -24 -1 -4 -7 -13 -7 -26 0 -13 8 -19 7 -19 0 0 -7 -6 -8 -18 -1
-10 5 -24 6 -32 1 -7 -4 -24 -4 -37 1 -14 5 -23 5 -23 -1 0 -6 -9 -6 -23 -1
-13 5 -30 5 -37 1 -8 -5 -19 -5 -25 0 -6 5 -17 5 -25 0 -8 -5 -21 -5 -31 1
-11 6 -20 5 -24 -1 -4 -7 -14 -6 -28 2 -12 6 -22 11 -22 11 0 0 -10 -5 -22
-11 -14 -8 -24 -9 -28 -2 -4 7 -12 7 -25 0 -13 -7 -21 -7 -25 0 -4 6 -13 7
-23 1 -17 -8 -49 -7 -59 3 -3 3 -14 1 -24 -4 -12 -7 -20 -7 -24 0 -4 7 -12 7
-24 0 -10 -5 -21 -7 -25 -3 -8 9 -76 9 -76 1 0 -4 -11 -3 -25 2 -15 6 -26 6
-30 -1 -4 -5 -11 -6 -17 -3 -14 9 -223 8 -237 0 -5 -4 -12 -2 -16 3 -3 7 -15
7 -30 1 -15 -6 -27 -6 -30 1 -4 5 -11 7 -16 3 -13 -8 -79 -11 -79 -4 0 7 -59
5 -66 -3 -3 -3 -18 -1 -33 4 -28 11 -28 11 -53 -2 -10 -6 -19 -5 -23 1 -4 7
-12 7 -25 0 -13 -7 -21 -7 -25 0 -4 6 -13 7 -23 1 -17 -8 -49 -7 -59 3 -3 3
-14 1 -24 -4 -12 -7 -20 -7 -24 0 -4 7 -12 7 -24 0 -10 -5 -21 -7 -25 -3 -8 9
-76 9 -76 1 0 -4 -11 -3 -25 2 -15 6 -26 6 -30 -1 -4 -5 -11 -6 -17 -3 -14 9
-223 8 -237 0 -5 -4 -12 -2 -16 3 -3 7 -15 7 -30 1 -15 -6 -27 -6 -30 1 -4 5
-11 7 -16 3 -13 -8 -79 -11 -79 -4 0 7 -59 5 -66 -3 -3 -3 -18 -1 -33 4 -28
11 -28 11 -53 -2 -10 -6 -19 -5 -23 1 -4 7 -12 7 -25 0 -13 -7 -21 -7 -25 0
-4 6 -13 7 -23 1 -17 -8 -49 -7 -59 3 -3 3 -14 1 -24 -4 -12 -7 -20 -7 -24 0
-4 7 -12 7 -25 0 -11 -6 -21 -6 -25 -1 -3 6 -17 6 -35 1 -18 -5 -32 -5 -35 1
-4 5 -14 5 -25 -1 -13 -7 -21 -7 -25 0 -4 7 -12 7 -24 0 -10 -5 -21 -7 -24 -4
-10 10 -42 11 -59 3 -10 -6 -19 -5 -23 1 -4 7 -12 7 -25 0 -13 -7 -21 -7 -25
0 -4 6 -13 7 -23 1 -9 -5 -19 -10 -22 -12 -3 -1 -14 3 -26 9 -11 6 -26 7 -34
2 -7 -4 -24 -4 -37 1 -14 5 -23 5 -23 -1 0 -6 -9 -6 -23 -1 -13 5 -30 5 -37 1
-8 -5 -19 -5 -25 0 -6 5 -17 5 -25 0 -8 -5 -21 -5 -31 1 -11 6 -20 5 -24 -1
-4 -7 -13 -7 -26 0 -13 8 -19 7 -19 0 0 -7 -6 -8 -18 -1 -10 5 -24 6 -32 1 -7
-4 -24 -4 -37 1 -15 5 -23 5 -23 -2 0 -6 -5 -7 -11 -3 -14 8 -114 8 -127 0 -6
-3 -12 -2 -14 4 -1 5 -8 6 -14 2z"/>
</g>
</svg>
